# xmcd CD database file
#
# Track frame offsets:
#	150
#	17908
#	41066
#	55126
#	73505
#	94050
#	108503
#	123323
#	136729
#	151979
#	167016
#	178266
#	197302
#	211811
#	226109
#
# Disc length: 3208 seconds
#
# Revision: 0
# Processed by: cddbd v1.5.1PL0 Copyright (c) Steve Scherf et al.
# Submitted via: CDex 1.51
#
DISCID=c20c860f
DTITLE=Ella Fitzgerald - Ella Fitzgerald Vol.2
DYEAR=2001
DGENRE=Jazz
TTITLE0=Love is here to stay
TTITLE1=Tenderly
TTITLE2=My heart belongs to daddy
TTITLE3=Hallelujah
TTITLE4=A foggy day
TTITLE5=How high the moon
TTITLE6=Undecided
TTITLE7=Little white lies
TTITLE8=One side of me
TTITLE9=Love and kisses
TTITLE10=When I get low I get high
TTITLE11=Let`s call the whole thing off
TTITLE12=Don't worry about me
TTITLE13=Crying my heart out of you
TTITLE14=Stars fell on Alabama
EXTD=YEAR: 2001
EXTT0=
EXTT1=
EXTT2=
EXTT3=
EXTT4=
EXTT5=
EXTT6=
EXTT7=
EXTT8=
EXTT9=
EXTT10=
EXTT11=
EXTT12=
EXTT13=
EXTT14=
PLAYORDER=
